# xmcd
#
# Track frame offsets: 
#        150
#        16739
#        34906
#        49796
#        65588
#        85715
#        103191
#        120977
#        139119
#        157870
#
# Disc length: 2345 seconds
#
# Revision: 0
# Processed by: cddbd v1.5.2PL0 Copyright (c) Steve Scherf et al.
# Submitted via: ExactAudioCopyFreeDBPlugin 1.0
#
DISCID=7609270a
DTITLE=Paul Benoit - Ragpickers
DYEAR=1900
DGENRE=
TTITLE0=Bloom
TTITLE1=Don't Hate Me
TTITLE2=Ragpickers
TTITLE3=What's On Your Mind
TTITLE4=Black Bag Blues
TTITLE5=But Not You
TTITLE6=Kickin In
TTITLE7=Rich Girl
TTITLE8=Can't Stop Me
TTITLE9=Crosswalk Companion
EXTD=
EXTT0=
EXTT1=
EXTT2=
EXTT3=
EXTT4=
EXTT5=
EXTT6=
EXTT7=
EXTT8=
EXTT9=
PLAYORDER=
